<svg width="209" height="38" viewBox="0 0 209 38" fill="none" xmlns="http://www.w3.org/2000/svg">
<path fill-rule="evenodd" clip-rule="evenodd" d="M200.3 17.9537H184.974C185.164 15.9763 186.519 13.9988 188.967 13.9988H207.039V10.1991H188.138C180.609 10.1991 177.519 16.0936 177.519 21.7534H198.606C199.32 21.7534 201.015 21.9087 201.015 23.6918C201.015 25.476 199.547 25.6313 197.025 25.7084H175.033V10.1991H168.557V25.7084H156.207C152.478 25.7084 152.066 22.8785 152.066 21.3669V10.1991H140.28L130.677 16.7907L122.017 10.1991H96.7534C89.2229 10.1991 84.7042 15.5886 84.064 20.2798H89.272C87.1897 21.7258 85.7151 23.6849 84.9142 25.7015L70.2085 25.7084C66.4807 25.7084 66.0662 22.8785 66.0662 21.3669V10.1991H59.5903V20.7848C59.5903 28.0747 64.5603 29.5092 66.97 29.5092H118.744L128.42 22.8393L137.194 29.5092H147.399L133.806 19.195L144.988 11.4783V21.6763C144.988 28.2668 151.24 29.5092 152.971 29.5092H200.226C202.561 29.5092 209 29.1986 209 23.9253C209 18.652 204.253 17.9537 200.3 17.9537ZM117.69 25.7084H93.3272C93.5148 23.7309 95.624 21.7534 98.0716 21.7534H112.456V17.9537H92.7999C92.9876 15.9763 95.0967 13.9988 97.5443 13.9988H113.961V11.7889L125.334 20.4742L117.69 25.7084ZM25.6847 38C34.1882 38 41.7299 34.9435 46.405 30.2327L42.1923 30.2535C38.2098 33.7022 32.3874 35.873 25.7886 35.873C13.4791 35.873 3.86969 28.3197 3.86969 19.0006C3.86969 8.25272 13.4791 2.12817 25.7886 2.12817C26.5717 2.13047 27.1973 2.50204 26.7281 3.20146C24.171 6.37187 16.8886 16.5756 15.5603 18.7866C12.9396 23.1453 13.0021 28.5129 19.4222 28.8891H46.4184C47.798 28.8891 48.1477 28.2231 48.6459 27.5282C50.4253 25.0638 51.3806 22.0715 51.3683 19.0006C51.3639 10.9917 45.8911 4.98914 37.8378 2.03615L36.5911 3.95381C43.2826 6.49612 47.7075 11.6336 47.7075 19.0006C47.7075 20.2798 47.5254 21.5256 47.1814 22.7232C46.882 23.7631 46.2977 24.6431 45.1907 24.6431H23.6415C20.8811 24.6431 21.948 21.7108 22.9701 20.2901C24.4525 17.5534 32.5729 6.15675 34.5278 4.03318C35.026 3.25438 36.4224 1.64157 34.4976 1.02382C31.7495 0.352011 28.7802 0 25.6836 0C11.4996 0 0.00782273 7.50038 2.92687e-06 19.0006C-0.00669977 30.6078 11.4996 38 25.6847 38Z" fill="#858585"/>
</svg>
