<svg width="171" height="40" viewBox="0 0 171 40" fill="none" xmlns="http://www.w3.org/2000/svg">
<path fill-rule="evenodd" clip-rule="evenodd" d="M0 18.2803V36.5606L24.5196 36.5499L49.0392 36.5391V35.0999V33.6606L25.9404 33.6498L2.84164 33.6391V18.2802V2.92141H85.5H168.158V18.2802V33.6391L145.06 33.6498L121.961 33.6606V35.0999V36.5391L146.48 36.5499L171 36.5606V18.2803V0H85.5H0V18.2803ZM20.1004 18.6884V28.4408H21.6048H23.1092V24.9394V21.438H26.4967H29.8843L30.9995 22.3049C31.6129 22.7818 32.3404 23.3485 32.6162 23.5643C32.892 23.78 33.475 24.2345 33.9117 24.5741C35.8356 26.0705 36.2921 26.4265 36.9414 26.9374C37.3206 27.2357 37.9115 27.6987 38.2544 27.9662L38.878 28.4525L39.5081 28.4454C40.4586 28.4346 43.3901 28.3555 43.405 28.3402C43.4122 28.3328 43.0938 28.0819 42.6975 27.7825C42.3011 27.4832 41.7292 27.0497 41.4265 26.8192C41.1237 26.5887 40.4185 26.053 39.8594 25.6288C36.7201 23.2472 34.643 21.6125 34.643 21.5235C34.643 21.5001 34.6506 21.4809 34.6598 21.4809C34.8604 21.4809 37.0231 21.2398 37.401 21.1752C38.5113 20.9857 39.5029 20.6551 40.2121 20.2379C41.9266 19.2294 42.7866 17.3689 42.6958 14.8648C42.6303 13.0585 42.1953 11.9376 41.1382 10.8508C40.4795 10.1736 39.7395 9.71699 38.8056 9.41144C37.5244 8.99235 36.1072 8.93736 26.5673 8.93659L20.1004 8.93607V18.6884ZM45.717 18.6884V28.4408H56.4003H67.0836L67.0556 27.4419C67.0402 26.8925 67.016 26.2573 67.002 26.0303L66.9764 25.6176L63.8583 25.5901C62.1433 25.5749 58.0369 25.55 54.733 25.5347L48.7258 25.5068V22.5917V19.6765H56.7911H64.8563V18.2803V16.884H56.7911H48.7258V14.3707V11.8575H57.585H66.4443V10.3968V8.93607H56.0806H45.717V18.6884ZM70.0799 18.6884V28.4408H71.5796H73.0793L73.0957 20.8043C73.1061 15.98 73.127 13.1414 73.1526 13.0962C73.1979 13.0162 73.1223 12.9534 74.6535 14.3441C75.9174 15.4921 78.8778 18.2188 83.8681 22.8315C85.3747 24.2241 87.1622 25.8753 87.8402 26.5008C88.5182 27.1264 89.2398 27.7942 89.4437 27.9848C89.6476 28.1755 89.845 28.3555 89.8825 28.3848C89.9337 28.4249 90.3307 28.4384 91.4863 28.4394L93.022 28.4408V18.6884V8.93607H91.5244H90.0268L89.9992 10.6438C89.9839 11.5831 89.9688 14.1495 89.9654 16.347C89.9621 18.5445 89.948 21.2672 89.9341 22.3975L89.9087 24.4527L88.5297 23.1758C87.7712 22.4736 86.8028 21.5782 86.3776 21.186C85.9524 20.7939 84.9557 19.8718 84.1628 19.137C83.3698 18.4022 81.8372 16.9828 80.757 15.9828C79.6767 14.9828 78.2583 13.6697 77.6048 13.0648C76.9514 12.4598 75.6821 11.2836 74.7841 10.4509L73.1514 8.93689L71.6157 8.9365L70.0799 8.93607V18.6884ZM96.3233 18.6884V28.4408H107.025H117.728L117.704 28.1508C117.69 27.9913 117.667 27.3556 117.653 26.7382L117.626 25.6156L114.152 25.5879C112.241 25.5726 108.13 25.5461 105.015 25.529L99.353 25.4979V22.5979V19.698L107.418 19.6765L115.484 19.6551V18.2803V16.9055L107.407 16.8946L99.3314 16.8838L99.3422 14.3814L99.353 11.879L108.202 11.8681L117.051 11.8573V10.3967V8.93607H106.687H96.3233V18.6884ZM119.057 8.97126C118.975 8.98775 118.906 9.0296 118.899 9.0671C118.892 9.10375 118.973 9.32608 119.08 9.56117C119.304 10.0572 121.096 14.2041 123.432 19.6336C123.742 20.3543 124.076 21.1276 124.174 21.3521C124.272 21.5765 124.631 22.4078 124.971 23.1994C127.067 28.0805 127.14 28.2408 127.292 28.3328C127.428 28.4151 127.507 28.4193 128.938 28.4193H130.44L131.413 25.6697C131.949 24.1575 132.555 22.4368 132.76 21.8461C133.235 20.4808 134.248 17.5619 134.518 16.7766C135.269 14.5979 135.62 13.6379 135.695 13.5548C135.72 13.5271 135.747 13.5346 135.773 13.5763C135.842 13.6901 136.275 14.9191 136.984 17.0129C137.164 17.5446 137.446 18.3662 137.611 18.8388C137.775 19.3114 137.973 19.8817 138.049 20.1062C138.207 20.5701 138.499 21.4 139.114 23.135C139.349 23.7966 139.615 24.5506 139.706 24.8105C139.796 25.0704 139.906 25.3797 139.951 25.4979C139.995 25.616 140.191 26.167 140.386 26.7223C140.581 27.2776 140.796 27.8866 140.864 28.0756L140.987 28.4193L142.611 28.4291L144.234 28.4388L144.41 28.0209C144.614 27.5362 145.004 26.6226 145.321 25.8845C145.443 25.601 145.648 25.1224 145.776 24.8211C145.905 24.5197 146.115 24.0267 146.245 23.7255C146.374 23.4244 146.658 22.7623 146.875 22.2543C147.093 21.7462 147.333 21.1856 147.409 21.0084C147.485 20.8311 147.717 20.2898 147.924 19.8054C148.131 19.321 148.406 18.6783 148.535 18.3771C148.963 17.3752 149.213 16.7898 149.896 15.187C150.268 14.3127 150.635 13.4524 150.712 13.2752C150.934 12.7627 151.609 11.1755 151.736 10.8694C151.799 10.7158 151.985 10.2742 152.148 9.88806C152.312 9.50196 152.446 9.15041 152.446 9.10689C152.446 8.94441 152.161 8.92447 150.627 8.97972C149.893 9.00623 149.285 9.03454 149.278 9.0427C149.214 9.10843 145.719 17.2909 144.36 20.5573C143.776 21.9612 142.979 23.8079 142.806 24.1606C142.749 24.2757 142.687 24.353 142.669 24.3324C142.606 24.2618 141.368 20.7107 140.934 19.3543C140.904 19.2598 140.734 18.7668 140.557 18.2588C140.38 17.7508 140.173 17.1515 140.097 16.927C139.9 16.3432 139.638 15.595 139.13 14.1631C138.536 12.4887 138.007 10.9932 137.556 9.70938L137.292 8.95755L136.136 8.97186C135.499 8.97976 134.777 8.9991 134.531 9.01482L134.083 9.04348L134.03 9.19384C134.002 9.27654 133.875 9.6342 133.75 9.98864C133.173 11.6187 132.784 12.7235 132.678 13.0389C132.614 13.228 132.352 13.9819 132.095 14.7144C131.837 15.4469 131.555 16.2589 131.468 16.5188C131.38 16.7788 131.154 17.4361 130.966 17.9795C130.778 18.523 130.496 19.3447 130.339 19.8054C130.182 20.2662 129.834 21.2812 129.566 22.0609C129.298 22.8407 129.002 23.7065 128.908 23.9849C128.814 24.2633 128.722 24.4756 128.704 24.4566C128.674 24.4258 128.368 23.7042 127.08 20.6217C126.269 18.6823 124.484 14.4579 123.466 12.0723C123.128 11.2807 122.701 10.2731 122.517 9.83307L122.182 9.03312L121.549 9.00674C120.393 8.95854 119.205 8.94166 119.057 8.97126ZM30.343 11.9004C35.6588 11.944 37.0403 11.9818 37.5232 12.0966C38.2023 12.2581 39.0115 12.9637 39.3828 13.718C39.5046 13.9654 39.5439 14.1084 39.5801 14.4352C39.6378 14.957 39.6003 16.06 39.515 16.3479C39.3834 16.7921 38.9412 17.4257 38.5508 17.7293C37.9049 18.2318 37.1022 18.4712 35.7668 18.5597C34.4841 18.6447 31.693 18.6877 27.4448 18.6881L23.1092 18.6884V15.2729V11.8575H24.106C24.6542 11.8575 27.4608 11.8768 30.343 11.9004ZM56.8047 33.0968C56.8405 33.1529 57.1407 33.6701 57.4718 34.246C58.2393 35.5811 60.7552 39.8729 60.8119 39.9438C60.8428 39.9825 61.0331 39.9975 61.4925 39.9975H62.1303L64.1824 36.5506C65.8921 33.6791 66.2224 33.0992 66.1618 33.0764C66.0249 33.0251 65.4498 32.9881 65.2546 33.0183L65.0596 33.0483L64.6304 33.7197C64.1954 34.4002 63.7773 35.0946 62.6646 36.9851C61.6851 38.6495 61.5545 38.8476 61.4793 38.784C61.3623 38.6852 60.6531 37.5275 59.6435 35.7872C59.3351 35.2556 58.8445 34.4098 58.5533 33.9077L58.0238 32.9949L57.3817 32.9948L56.7397 32.9947L56.8047 33.0968ZM66.904 36.4961V39.9975H67.4681H68.0323V36.4961V32.9947H67.4681H66.904V36.4961ZM68.8123 33.0234C68.797 33.0391 68.7845 33.2614 68.7845 33.5174V33.9828H70.5396H72.2947V36.9914V40L72.8484 39.988L73.4021 39.976L73.4129 36.9794L73.4236 33.9828H75.1576H76.8915V33.4888V32.9947H72.8659C70.6517 32.9947 68.8276 33.0076 68.8123 33.0234ZM80.163 33.0403C80.0891 33.0634 79.9828 33.1447 79.9268 33.2211C79.6194 33.6395 76.0711 39.6402 76.029 39.8127C76.0152 39.8693 76.0172 39.9292 76.0334 39.9458C76.0496 39.9624 76.2634 39.976 76.5085 39.976C76.8813 39.976 76.9781 39.9617 77.1004 39.8885C77.2459 39.8013 77.4747 39.4821 77.9288 38.7322L78.1512 38.365L80.6869 38.3656L83.2225 38.3662L83.4315 38.7156C84.1596 39.933 84.2307 39.9981 84.8311 39.997C85.24 39.9963 85.4261 39.9565 85.3961 39.8762C85.368 39.8008 85.0049 39.1747 84.0699 37.5894C83.4606 36.5563 83.2602 36.2206 82.3668 34.7347C82.1678 34.4039 81.8655 33.8976 81.6949 33.6095L81.3848 33.0859L81.1963 33.0629C80.773 33.0113 80.2893 33.0007 80.163 33.0403ZM86.0433 36.4961V39.9975H89.6789H93.3145V39.5034V39.0094H90.243H87.1716V36.0021V32.9947H86.6074H86.0433V36.4961ZM94.2757 36.4961V40L94.8294 39.988L95.3831 39.976V36.4961V33.0162L94.8294 33.0042L94.2757 32.9922V36.4961ZM96.1562 33.4888V33.9828H97.9113H99.6664V36.9902V39.9975H100.21H100.753V36.9902V33.9828H102.508H104.263V33.4888V32.9947H100.21H96.1562V33.4888ZM104.801 33.16C104.871 33.2509 104.96 33.3523 104.999 33.3854C105.038 33.4185 105.325 33.7356 105.637 34.0901C105.949 34.4446 106.412 34.9672 106.665 35.2514C107.365 36.0363 107.832 36.5629 108.436 37.2479L108.985 37.8708V38.9341V39.9975H109.549H110.114V38.9126V37.8278L110.517 37.3767C111.069 36.7602 113.745 33.7464 114.098 33.3429L114.385 33.0162L113.848 33.0039C113.424 32.9942 113.272 33.0069 113.126 33.0639C112.888 33.1569 112.462 33.5765 111.602 34.5617C110.602 35.7086 110.084 36.2917 109.79 36.6035L109.526 36.8828L109.266 36.6033C109.036 36.3561 107.042 34.0703 106.374 33.2886L106.123 32.9952L105.398 32.9949L104.674 32.9947L104.801 33.16ZM80.9703 34.5528C81.2482 34.985 82.3131 36.8015 82.4485 37.0742C82.502 37.1821 82.5168 37.2531 82.4894 37.2706C82.2786 37.4045 78.9539 37.4063 78.8238 37.2726C78.797 37.245 79.0942 36.6987 79.6087 35.8302C80.3471 34.5835 80.6248 34.1535 80.6903 34.1554C80.704 34.1558 80.83 34.3347 80.9703 34.5528Z" fill="#141414"/>
</svg>
