<svg width="179" height="42" viewBox="0 0 179 42" fill="none" xmlns="http://www.w3.org/2000/svg">
<path fill-rule="evenodd" clip-rule="evenodd" d="M0 19.1943V38.3887L25.6667 38.3774L51.3335 38.366V36.8548V35.3437L27.154 35.3323L2.97458 35.321V19.1942V3.06748H89.5H176.025V19.1942V35.321L151.846 35.3323L127.667 35.3437V36.8548V38.366L153.333 38.3774L179 38.3887V19.1943V0H89.5H0V19.1943ZM21.0408 19.6228V29.8628H22.6156H24.1904V26.1863V22.5099H27.7363H31.2824L32.4497 23.4202C33.0919 23.9209 33.8534 24.5159 34.1421 24.7425C34.4308 24.969 35.041 25.4462 35.4982 25.8028C37.5121 27.374 37.99 27.7479 38.6696 28.2842C39.0666 28.5975 39.6851 29.0836 40.0441 29.3645L40.6968 29.8751L41.3564 29.8676C42.3514 29.8564 45.42 29.7733 45.4356 29.7572C45.4432 29.7495 45.1099 29.486 44.695 29.1717C44.2802 28.8574 43.6814 28.4022 43.3645 28.1602C43.0476 27.9181 42.3094 27.3556 41.7241 26.9103C38.438 24.4095 36.2637 22.6931 36.2637 22.5997C36.2637 22.5751 36.2716 22.555 36.2814 22.555C36.4912 22.555 38.7552 22.3017 39.1508 22.234C40.313 22.035 41.351 21.6878 42.0933 21.2498C43.8881 20.1909 44.7883 18.2374 44.6933 15.6081C44.6247 13.7114 44.1694 12.5345 43.0628 11.3934C42.3732 10.6823 41.5987 10.2028 40.6211 9.88202C39.28 9.44197 37.7965 9.38423 27.8102 9.38342L21.0408 9.38287V19.6228ZM47.8558 19.6228V29.8628H59.0389H70.222L70.1927 28.814C70.1765 28.2371 70.1513 27.5702 70.1366 27.3319L70.1098 26.8985L66.8458 26.8696C65.0506 26.8537 60.7521 26.8275 57.2936 26.8114L51.0054 26.7821V23.7213V20.6604H59.448H67.8905V19.1943V17.7282H59.448H51.0054V15.0893V12.4504H60.2791H69.5528V10.9166V9.38287H58.7043H47.8558V19.6228ZM73.3585 19.6228V29.8628H74.9283H76.4982L76.5154 21.8445C76.5262 16.779 76.5482 13.7985 76.575 13.751C76.6224 13.6671 76.5432 13.601 78.1461 15.0613C79.469 16.2667 82.568 19.1297 87.7918 23.9731C89.3689 25.4353 91.2399 27.1691 91.9497 27.8259C92.6594 28.4827 93.4147 29.1839 93.6282 29.3841C93.8416 29.5843 94.0483 29.7733 94.0875 29.804C94.1411 29.8461 94.5567 29.8603 95.7663 29.8614L97.3739 29.8628V19.6228V9.38287H95.8063H94.2386L94.2096 11.176C94.1937 12.1622 94.1778 14.857 94.1743 17.1643C94.1708 19.4717 94.1561 22.3306 94.1415 23.5174L94.115 25.6753L92.6714 24.3346C91.8775 23.5973 90.8637 22.6571 90.4186 22.2453C89.9735 21.8336 88.9302 20.8654 88.1002 20.0939C87.2702 19.3223 85.6659 17.8319 84.5351 16.7819C83.4043 15.7319 81.9195 14.3531 81.2355 13.718C80.5515 13.0828 79.2228 11.8478 78.2828 10.9735L76.5737 9.38373L74.9661 9.38333L73.3585 9.38287V19.6228ZM100.83 19.6228V29.8628H112.033H123.235L123.21 29.5583C123.196 29.3909 123.172 28.7234 123.157 28.0751L123.129 26.8964L119.492 26.8673C117.492 26.8513 113.188 26.8234 109.928 26.8055L104.001 26.7728V23.7278V20.6829L112.444 20.6604L120.886 20.6378V19.1943V17.7508L112.432 17.7394L103.979 17.728L103.99 15.1004L104.001 12.4729L113.264 12.4615L122.527 12.4501V10.9165V9.38287H111.678H100.83V19.6228ZM124.627 9.41982C124.541 9.43714 124.469 9.48108 124.461 9.52046C124.454 9.55894 124.539 9.79238 124.651 10.0392C124.886 10.56 126.761 14.9143 129.207 20.6153C129.531 21.372 129.881 22.184 129.983 22.4197C130.086 22.6554 130.461 23.5282 130.817 24.3594C133.012 29.4846 133.088 29.6528 133.247 29.7495C133.39 29.8359 133.473 29.8402 134.97 29.8402H136.542L137.561 26.9532C138.122 25.3653 138.756 23.5587 138.971 22.9384C139.469 21.5049 140.528 18.44 140.811 17.6154C141.597 15.3278 141.964 14.3198 142.043 14.2326C142.07 14.2034 142.098 14.2113 142.125 14.2551C142.197 14.3746 142.65 15.6651 143.392 17.8635C143.581 18.4218 143.876 19.2845 144.048 19.7807C144.221 20.2769 144.428 20.8758 144.508 21.1115C144.673 21.5986 144.978 22.47 145.623 24.2917C145.868 24.9864 146.147 25.7781 146.241 26.051C146.336 26.3239 146.451 26.6487 146.498 26.7728C146.544 26.8968 146.75 27.4754 146.954 28.0584C147.158 28.6414 147.383 29.2809 147.454 29.4794L147.583 29.8402L149.282 29.8505L150.982 29.8608L151.166 29.422C151.38 28.913 151.788 27.9537 152.12 27.1788C152.248 26.881 152.462 26.3786 152.596 26.0621C152.731 25.7457 152.951 25.2281 153.087 24.9118C153.222 24.5956 153.519 23.9004 153.747 23.367C153.974 22.8335 154.226 22.2449 154.305 22.0588C154.385 21.8727 154.628 21.3043 154.844 20.7957C155.061 20.2871 155.349 19.6122 155.484 19.296C155.933 18.244 156.194 17.6293 156.908 15.9464C157.298 15.0284 157.683 14.1251 157.763 13.939C157.995 13.4008 158.702 11.7343 158.834 11.4128C158.901 11.2516 159.095 10.7879 159.266 10.3825C159.438 9.97706 159.578 9.60793 159.578 9.56223C159.578 9.39163 159.279 9.37069 157.674 9.42871C156.905 9.45654 156.27 9.48627 156.261 9.49484C156.194 9.56386 152.537 18.1555 151.114 21.5851C150.502 23.0593 149.668 24.9983 149.486 25.3686C149.427 25.4894 149.363 25.5706 149.343 25.549C149.277 25.4749 147.982 21.7462 147.528 20.322C147.496 20.2228 147.318 19.7052 147.133 19.1717C146.948 18.6383 146.731 18.009 146.652 17.7733C146.445 17.1604 146.17 16.3747 145.639 14.8713C145.017 13.1132 144.464 11.5429 143.992 10.1949L143.715 9.40543L142.504 9.42045C141.839 9.42875 141.083 9.44905 140.825 9.46556L140.356 9.49565L140.301 9.65353C140.271 9.74037 140.138 10.1159 140.007 10.4881C139.403 12.1997 138.997 13.3596 138.885 13.6909C138.818 13.8894 138.543 14.681 138.274 15.4502C138.005 16.2193 137.71 17.0719 137.618 17.3448C137.527 17.6177 137.29 18.3079 137.094 18.8785C136.897 19.4492 136.601 20.3119 136.436 20.7957C136.272 21.2795 135.908 22.3452 135.628 23.164C135.347 23.9827 135.037 24.8918 134.939 25.1841C134.841 25.4765 134.745 25.6994 134.725 25.6794C134.694 25.6471 134.374 24.8894 133.025 21.6528C132.177 19.6164 130.307 15.1808 129.242 12.6759C128.889 11.8448 128.442 10.7867 128.249 10.3247L127.898 9.48478L127.236 9.45708C126.026 9.40647 124.782 9.38874 124.627 9.41982ZM31.7625 12.4955C37.3271 12.5412 38.7732 12.5809 39.2786 12.7014C39.9896 12.871 40.8366 13.6118 41.2253 14.4039C41.3528 14.6637 41.3939 14.8138 41.4318 15.1569C41.4922 15.7049 41.453 16.863 41.3637 17.1652C41.2259 17.6317 40.7631 18.297 40.3544 18.6158C39.6782 19.1434 38.838 19.3948 37.4401 19.4877C36.0974 19.5769 33.1757 19.6221 28.7288 19.6225L24.1904 19.6228V16.0366V12.4504H25.2338C25.8076 12.4504 28.7456 12.4707 31.7625 12.4955ZM59.4623 34.7516C59.4997 34.8106 59.8139 35.3536 60.1605 35.9583C60.9639 37.3601 63.5975 41.8665 63.6569 41.941C63.6893 41.9816 63.8884 41.9974 64.3694 41.9974H65.0369L67.1851 38.3782C68.9747 35.363 69.3205 34.7541 69.2571 34.7303C69.1138 34.6763 68.5117 34.6376 68.3074 34.6692L68.1033 34.7007L67.6541 35.4056C67.1987 36.1202 66.7611 36.8493 65.5963 38.8344C64.5709 40.5819 64.4343 40.79 64.3555 40.7232C64.2331 40.6195 63.4907 39.4039 62.4339 37.5766C62.111 37.0184 61.5974 36.1303 61.2926 35.6031L60.7384 34.6446L60.0663 34.6445L59.3941 34.6445L59.4623 34.7516ZM70.034 38.3209V41.9974H70.6245H71.2151V38.3209V34.6445H70.6245H70.034V38.3209ZM72.0316 34.6745C72.0156 34.6911 72.0024 34.9245 72.0024 35.1933V35.682H73.8397H75.6769V38.841V42L76.2565 41.9874L76.8362 41.9748L76.8474 38.8284L76.8586 35.682H78.6737H80.4888V35.1632V34.6445H76.2748C73.9571 34.6445 72.0476 34.658 72.0316 34.6745ZM83.9133 34.6923C83.836 34.7165 83.7247 34.802 83.666 34.8821C83.3443 35.3215 79.63 41.6222 79.5859 41.8034C79.5715 41.8628 79.5735 41.9257 79.5905 41.9431C79.6075 41.9605 79.8313 41.9748 80.0878 41.9748C80.478 41.9748 80.5794 41.9598 80.7075 41.8829C80.8598 41.7914 81.0992 41.4562 81.5746 40.6688L81.8074 40.2832L84.4617 40.2839L87.116 40.2846L87.3347 40.6513C88.0969 41.9296 88.1713 41.998 88.7998 41.9969C89.2279 41.9961 89.4227 41.9544 89.3913 41.87C89.3618 41.7908 88.9817 41.1335 88.003 39.4689C87.3652 38.3841 87.1555 38.0316 86.2202 36.4714C86.012 36.1241 85.6955 35.5924 85.5169 35.29L85.1923 34.7402L84.9949 34.716C84.5518 34.6619 84.0455 34.6507 83.9133 34.6923ZM90.0687 38.3209V41.9974H93.8744H97.6801V41.4786V40.9599H94.4649H91.2498V37.8022V34.6445H90.6592H90.0687V38.3209ZM98.6862 38.3209V42L99.2658 41.9874L99.8454 41.9748V38.3209V34.667L99.2658 34.6544L98.6862 34.6418V38.3209ZM100.655 35.1632V35.682H102.492H104.329V38.8397V41.9974H104.898H105.467V38.8397V35.682H107.304H109.141V35.1632V34.6445H104.898H100.655V35.1632ZM109.704 34.818C109.778 34.9134 109.871 35.0199 109.911 35.0546C109.952 35.0894 110.253 35.4224 110.579 35.7946C110.906 36.1669 111.39 36.7155 111.655 37.014C112.388 37.8382 112.877 38.3911 113.509 39.1103L114.084 39.7643V40.8808V41.9974H114.675H115.265V40.8583V39.7192L115.688 39.2456C116.265 38.5983 119.066 35.4337 119.436 35.0101L119.736 34.667L119.174 34.6541C118.73 34.644 118.571 34.6572 118.419 34.717C118.17 34.8148 117.723 35.2553 116.823 36.2898C115.776 37.4941 115.234 38.1062 114.926 38.4337L114.65 38.7269L114.378 38.4335C114.137 38.174 112.049 35.7738 111.35 34.953L111.088 34.645L110.329 34.6447L109.571 34.6445L109.704 34.818ZM84.7583 36.2805C85.0492 36.7342 86.1641 38.6416 86.3057 38.9279C86.3618 39.0412 86.3773 39.1158 86.3486 39.1341C86.1279 39.2747 82.6477 39.2766 82.5115 39.1362C82.4834 39.1072 82.7945 38.5336 83.333 37.6217C84.106 36.3127 84.3968 35.8612 84.4653 35.8632C84.4796 35.8636 84.6115 36.0514 84.7583 36.2805Z" fill="#858585"/>
</svg>
